<?xml version="1.0"?>
<svg xmlns="http://www.w3.org/2000/svg" viewBox="0 0 600 634" version="1.1" style="fill-rule:evenodd;clip-rule:evenodd;stroke-linejoin:round;stroke-miterlimit:2;">
 <g>
  <path d="M453.333,73.452c-16.667,-10 -36.667,-3.333 -46.667,13.333c-10,16.667 -3.333,36.667 13.333,46.667c70,43.333 116.667,120 116.667,200c0,130 -103.333,233.333 -233.333,233.333c-130,0 -233.333,-103.333 -233.333,-233.333c0,-83.333 46.667,-160 116.667,-203.333c13.333,-10 20,-30 10,-43.333c-10,-16.667 -30,-23.333 -46.667,-13.333c-93.333,53.333 -150,153.333 -150,260c0,166.667 133.333,300 300,300c166.667,0 300,-133.333 300,-300c0,-106.667 -56.667,-203.333 -146.667,-260l0,-0.001Z" style="fill:#fff;fill-rule:nonzero;"/>
  <path d="M300,366.786c20,0 33.333,-13.333 33.333,-33.333l0,-300c0,-20 -13.333,-33.333 -33.333,-33.333c-20,0 -33.333,13.333 -33.333,33.333l0,300c0,20 13.333,33.333 33.333,33.333Z" style="fill:#fff;fill-rule:nonzero;stroke:#fff;stroke-width:0.24px;"/>
 </g>
</svg>
