<?xml version="1.0"?>
<svg xmlns="http://www.w3.org/2000/svg" xmlns:xlink="http://www.w3.org/1999/xlink" viewBox="0 0 385 318" version="1.1" style="fill-rule:evenodd;clip-rule:evenodd;stroke-linejoin:round;stroke-miterlimit:2;">
 <g>
  <path d="M358.833,0.5c-13.8,0 -25,11.2 -25,25l0,266.667c0,13.8 11.2,25 25,25c13.8,0 25,-11.2 25,-25l0,-266.667c0,-13.8 -11.2,-25 -25,-25Z" style="fill:#fff;fill-rule:nonzero;stroke:#fff;stroke-width:1px;"/>
  <path d="M0.5,158.833c0,13.8 11.2,25 25,25l172.967,0l-57.3,57.333c-9.767,9.767 -9.767,25.567 0,35.333c9.767,9.767 25.567,9.767 35.333,0l100,-100c4.7,-4.667 7.333,-11.033 7.333,-17.667c0,-6.633 -2.633,-13 -7.333,-17.667l-100,-100c-9.767,-9.767 -25.567,-9.767 -35.333,0c-9.767,9.767 -9.767,25.567 0,35.333l57.3,57.333l-172.967,0c-13.8,0 -25,11.2 -25,25Z" style="fill:#fff;fill-rule:nonzero;stroke:#fff;stroke-width:1px;"/>
 </g>
</svg>
