<?xml version="1.0"?>
<svg xmlns="http://www.w3.org/2000/svg" viewBox="0 0 360 360" version="1.1" style="fill-rule:evenodd;clip-rule:evenodd;stroke-linejoin:round;stroke-miterlimit:2;">
 <g>
  <path d="M331.004,0c-13.8,0 -25,12.733 -25,28.421l0,303.158c0,15.688 11.2,28.421 25,28.421c13.8,0 25,-12.733 25,-28.421l0,-303.158c0,-15.688 -11.2,-28.421 -25,-28.421Z" style="fill:#fff;fill-rule:nonzero;stroke:#fff;stroke-width:1.07px;"/>
  <path d="M67.819,100.022c0,9.009 8.059,16.321 17.989,16.321l124.461,0l-41.231,37.429c-7.028,6.376 -7.028,16.691 0,23.067c7.028,6.376 18.397,6.376 25.425,0l71.956,-65.284c3.382,-3.047 5.277,-7.203 5.277,-11.533c0,-4.331 -1.895,-8.487 -5.277,-11.533l-71.956,-65.284c-7.028,-6.376 -18.397,-6.376 -25.425,0c-7.028,6.376 -7.028,16.691 0,23.067l41.231,37.429l-124.461,0c-9.93,0 -17.989,7.312 -17.989,16.321Z" style="fill:#fff;fill-rule:nonzero;stroke:#fff;stroke-width:0.92px;"/>
  <path d="M0,259.479c0,9.009 8.059,16.321 17.989,16.321l124.461,0l-41.231,37.429c-7.028,6.376 -7.028,16.691 0,23.067c7.028,6.376 18.397,6.376 25.425,0l71.956,-65.284c3.382,-3.047 5.277,-7.203 5.277,-11.533c0,-4.331 -1.895,-8.487 -5.277,-11.533l-71.956,-65.284c-7.028,-6.376 -18.397,-6.376 -25.425,0c-7.028,6.376 -7.028,16.691 0,23.067l41.231,37.429l-124.461,0c-9.93,0 -17.989,7.312 -17.989,16.321Z" style="fill:#fff;fill-rule:nonzero;stroke:#fff;stroke-width:0.92px;"/>
 </g>
</svg>
