<?xml version="1.0"?>
<svg version="1.1" viewBox="-10 0 950 950" xmlns="http://www.w3.org/2000/svg">
  <path d="M 88.895635,98.895635 V 851.10436 H 465 c 69.15042,0 132.4943,-17.15564 190.03167,-51.46691 C 712.56904,765.32617 757.96551,719.40186 791.22104,661.86449 824.47658,604.32712 841.10436,542.03895 841.10436,475 c 0,-69.15042 -17.15564,-132.49431 -51.46691,-190.03167 C 755.32617,227.43095 709.40186,182.03449 651.86449,148.77895 594.32712,115.52341 532.03895,98.895635 465,98.895635 Z M 440.87952,183.78047 c 11.93217,0 25.60494,0.99447 41.01734,2.98317 3.97739,0.99435 7.58136,3.1074 10.81299,6.33903 3.23163,3.23163 5.09644,6.83561 5.59364,10.813 l 9.69488,66.37345 56.67856,27.59231 58.16937,-34.30404 c 2.98303,-1.49153 5.96489,-2.23776 8.94794,-2.23776 5.96609,0 10.6902,1.73916 14.17041,5.21938 l 50.71069,64.13569 c 1.98869,2.48586 2.98317,5.71749 2.98317,9.69488 0,5.46893 -1.73916,9.94325 -5.21938,13.42348 l -46.23826,48.47447 14.1704,61.15251 62.64335,24.61071 c 3.97739,1.49153 7.08492,4.2267 9.32218,8.20409 2.23729,3.97739 3.10764,7.95371 2.61047,11.93111 l -17.89899,79.0515 c -1.49152,3.9774 -4.10101,7.20903 -7.82983,9.69491 -3.7288,2.48586 -7.58257,3.48033 -11.55995,2.98316 l -67.1173,-5.22092 -39.52654,49.21987 20.88215,64.1357 c 0.49717,0.99434 0.7454,2.4868 0.7454,4.47551 0,6.96045 -2.9834,12.67746 -8.94948,17.15203 l -73.83059,35.79641 c -0.99435,0.49719 -2.7335,0.7454 -5.21938,0.7454 -7.45761,0 -13.17463,-2.73362 -17.15204,-8.20254 l -37.28875,-55.93314 h -62.64335 l -37.28876,55.93314 c -1.9887,3.48022 -5.22033,5.84149 -9.6949,7.08444 -4.47456,1.24293 -8.70067,1.36707 -12.67806,0.3727 l -73.83058,-35.79641 c -3.48023,-2.48587 -5.96562,-5.84161 -7.45714,-10.0676 -1.49152,-4.22598 -1.73975,-8.07973 -0.74541,-11.55994 l 20.88061,-64.1357 -39.52499,-49.21988 -67.11885,5.22092 h -1.4908 c -3.97739,0 -7.58292,-1.2427 -10.81455,-3.72857 -3.23163,-2.48587 -5.59291,-5.46926 -7.08444,-8.94949 l -17.89743,-79.0515 v -2.23622 c 0,-3.48021 1.11858,-6.96162 3.35587,-10.44184 2.23728,-3.48021 5.09502,-5.96561 8.57524,-7.45714 l 62.64488,-24.61071 14.16886,-61.15251 -46.2367,-48.47447 c -3.48022,-3.48023 -5.22093,-7.95455 -5.22093,-13.42348 0,-3.97739 0.99448,-7.20902 2.98317,-9.69488 l 50.71223,-64.13569 c 3.48022,-3.48022 8.20277,-5.21939 14.16886,-5.21939 2.98305,0 5.96645,0.74624 8.9495,2.23777 l 58.16936,34.30404 56.67701,-27.59231 9.6949,-66.37346 c 0.49717,-3.97739 2.36198,-7.58136 5.59362,-10.81299 3.23164,-3.23163 6.83715,-5.34468 10.81455,-6.33903 15.41239,-1.9887 29.08359,-2.98317 41.01578,-2.98317 z m 0,178.98207 c -21.37849,0 -41.26472,5.34467 -59.66017,16.03392 -18.39544,10.68924 -32.93856,25.23235 -43.62781,43.6278 -10.68924,18.39546 -16.03391,38.28168 -16.03391,59.66018 0,21.37848 5.34467,41.26627 16.03391,59.66172 10.68925,18.39545 25.23237,32.937 43.62781,43.62625 18.39545,10.68923 38.28169,16.03392 59.66017,16.03392 21.37849,0 41.26628,-5.34469 59.66172,-16.03392 18.39545,-10.68926 32.93701,-25.2308 43.62625,-43.62625 10.68924,-18.39545 16.03392,-38.28325 16.03392,-59.66173 0,-21.37849 -5.34467,-41.26472 -16.03392,-59.66018 -10.68924,-18.39544 -25.2308,-32.93855 -43.62625,-43.62779 -18.39544,-10.68924 -38.28323,-16.03392 -59.66172,-16.03392 z" fill="#c8c8c8"/>
</svg>
